<svg id="Capa_1" enable-background="new 0 0 512 512" height="512" viewBox="0 0 512 512" width="512" xmlns="http://www.w3.org/2000/svg"><g><g><path d="m231.996 472.014v16.001c0 8.837 7.164 16.001 16.001 16.001h16.001c8.837 0 16.001-7.164 16.001-16.001v-16.001z" fill="#fff"/></g><g><path d="m199.995 408.011v48.002c0 8.837 7.164 16.001 16.001 16.001h80.004c8.837 0 16.001-7.164 16.001-16.001v-48.002z" fill="#fff"/></g><g><path d="m199.995 408.011v48.002c0 8.837 7.164 16.001 16.001 16.001h72.003v-64.003z" fill="#ffaf82"/></g><g><path d="m432.005 184.001c0-103.816-89.882-186.639-196.074-174.896-81.493 9.013-146.826 75.1-155.024 156.679-7.283 72.475 29.458 137.079 86.674 170.382 14.838 8.637 24.413 24.057 24.413 41.226v14.619c0 8.837 7.164 16.001 16.001 16.001h96.004c8.837 0 16.001-7.164 16.001-16.001v-15.68c0-16.57 9.27-31.451 23.632-39.713 52.805-30.374 88.373-87.326 88.373-152.617z" fill="#ffedbe"/></g><g><path d="m271.996 343.994c-.945 0-1.905-.169-2.841-.525-4.121-1.57-6.189-6.183-4.619-10.304l55.737-146.31c.953-2.501.628-5.199-.89-7.403s-3.924-3.467-6.601-3.467h-113.57c-2.676 0-5.082 1.264-6.601 3.467-1.518 2.204-1.843 4.902-.89 7.403l55.737 146.31c1.57 4.121-.498 8.734-4.619 10.304-4.122 1.569-8.734-.498-10.304-4.619l-55.737-146.31c-2.808-7.373-1.812-15.653 2.665-22.149 4.477-6.497 11.859-10.375 19.749-10.375h113.571c7.89 0 15.273 3.878 19.749 10.375 4.477 6.496 5.473 14.776 2.665 22.149l-55.737 146.31c-1.214 3.186-4.247 5.144-7.464 5.144z" fill="#fff"/></g><g><path d="m271.998 415.996c-4.41 0-7.984-3.575-7.984-7.984v-64.003c0-4.421-3.596-8.016-8.016-8.016s-8.016 3.596-8.016 8.016v64.003c0 4.41-3.574 7.984-7.984 7.984s-7.984-3.575-7.984-7.984v-64.003c0-13.225 10.76-23.985 23.985-23.985s23.985 10.76 23.985 23.985v64.003c-.002 4.409-3.576 7.984-7.986 7.984z" fill="#ffaf82"/></g><g><path d="m235.931 9.105c-8.014.886-15.814 2.477-23.476 4.427 2.3 12.21 13.554 20.786 26.115 19.431 43.967-4.895 86.164 8.543 118.786 37.756 32.189 28.822 50.647 70.112 50.647 113.282 0 54.213-29.251 104.723-76.331 131.81-7.228 4.155-13.557 9.448-18.798 15.557-13.811 16.101-10.404 40.696 7.125 52.642v-7.68c0-16.569 9.27-31.451 23.632-39.713 52.804-30.374 88.373-87.326 88.373-152.616.001-103.816-89.881-186.639-196.073-174.896z" fill="#fff"/></g><g><path d="m263.997 512h-16.001c-13.225 0-23.985-10.76-23.985-23.985v-16.001c0-4.41 3.575-7.984 7.984-7.984 4.41 0 7.984 3.575 7.984 7.984v16.001c0 4.42 3.596 8.016 8.016 8.016h16.001c4.421 0 8.016-3.596 8.016-8.016v-16.001c0-4.41 3.575-7.984 7.984-7.984 4.41 0 7.984 3.575 7.984 7.984v16.001c.002 13.225-10.757 23.985-23.983 23.985z" fill="#ffaf82"/></g><path d="m378.697 46.894c-19.042-17.052-40.947-29.733-65.106-37.689-25.222-8.306-51.646-11.009-78.538-8.036-85.331 9.438-153.501 78.332-162.091 163.817-3.656 36.387 3.268 72.485 20.026 104.391 16.138 30.727 40.543 56.208 70.576 73.69 12.802 7.451 20.445 20.283 20.445 34.325v14.619c0 7.09 3.094 13.468 8 17.863v46.14c0 13.225 10.76 23.985 23.985 23.985h80.003c13.225 0 23.985-10.759 23.985-23.985v-46.14c4.906-4.395 8-10.773 8-17.863v-15.68c0-13.463 7.338-25.722 19.629-32.792 27.568-15.858 50.694-38.704 66.879-66.071 16.68-28.204 25.497-60.524 25.497-93.466.002-52.253-22.338-102.226-61.29-137.108zm-82.698 417.136h-80.003c-4.42 0-8.016-3.596-8.016-8.016v-8.017h96.036v8.017c-.001 4.42-3.597 8.016-8.017 8.016zm8.016-32.001h-96.036v-16.033c.005 0 .011.001.016.001h96.004c.005 0 .011-.001.016-.001zm96.733-162.69c-14.785 25-35.912 45.871-61.096 60.358-17.047 9.805-27.636 27.674-27.636 46.634v15.68c0 4.421-3.596 8.016-8.016 8.016h-96.004c-4.42 0-8.016-3.596-8.016-8.016v-14.619c0-19.496-10.875-37.937-28.381-48.126-27.437-15.97-49.731-39.247-64.472-67.314-15.298-29.128-21.617-62.106-18.274-95.37 7.841-78.036 70.067-140.927 147.958-149.541 6.518-.721 12.996-1.078 19.423-1.078 41.46 0 80.591 14.868 111.812 42.827 35.573 31.856 55.976 77.494 55.976 125.211-.002 30.085-8.049 59.594-23.274 85.338z" fill="#c37678"/><path d="m271.998 464.03h-56.002c-4.42 0-8.016-3.596-8.016-8.016v-8.017h48.018c4.41 0 7.984-3.574 7.984-7.984s-3.574-7.984-7.984-7.984h-48.018v-16.033c.005 0 .011.001.016.001h32.001c4.41 0 7.984-3.575 7.984-7.984s-3.574-7.984-7.984-7.984h-32.001c-4.42 0-8.016-3.596-8.016-8.016v-14.619c0-19.496-10.875-37.937-28.381-48.126-7.895-4.595-15.477-9.881-22.535-15.71-3.401-2.808-8.433-2.328-11.241 1.072-2.808 3.401-2.328 8.433 1.072 11.241 7.726 6.38 16.027 12.167 24.671 17.198 12.802 7.451 20.445 20.283 20.445 34.325v14.619c0 7.09 3.094 13.468 8 17.863v46.14c0 13.225 10.76 23.985 23.985 23.985h56.002c4.41 0 7.984-3.574 7.984-7.984 0-4.412-3.574-7.987-7.984-7.987z" fill="#283246"/></g></svg>