<svg xmlns="http://www.w3.org/2000/svg" viewBox="0 0 512 512" width="512" height="512">
	<style>
		tspan { white-space:pre }
		.shp0 { fill: #ffffff } 
	</style>
	<g id="Layer">
		<path id="Layer" fill-rule="evenodd" class="shp0" d="M448.82 34.27C469.53 34.27 486.37 51.12 486.38 71.82L486.38 474.5C486.38 495.18 469.55 512 448.88 512L63.13 512C42.45 512 25.63 495.18 25.63 474.5L25.63 71.82C25.63 51.12 42.47 34.27 63.18 34.27L95.24 34.27L95.24 22.81C95.24 10.23 105.47 0 118.05 0L121.49 0C134.07 0 144.3 10.23 144.3 22.81L144.3 34.27L367.7 34.27L367.7 22.81C367.7 10.23 377.93 0 390.51 0L393.95 0C406.53 0 416.76 10.23 416.76 22.81L416.76 34.27L448.82 34.27ZM471.37 71.82C471.37 59.39 461.26 49.27 448.82 49.27L382.7 49.27L382.7 71.33C382.7 75.63 386.2 79.13 390.51 79.13C394.65 79.13 398.01 82.49 398.01 86.63C398.01 90.78 394.65 94.13 390.51 94.13C377.93 94.13 367.7 83.9 367.7 71.33L367.7 49.27L110.24 49.27L110.24 71.33C110.24 75.63 113.74 79.13 118.05 79.13C122.19 79.13 125.55 82.49 125.55 86.63C125.55 90.78 122.19 94.13 118.05 94.13C105.47 94.13 95.24 83.9 95.24 71.33L95.24 49.27L63.18 49.27C50.74 49.27 40.63 59.39 40.63 71.82L40.63 141.45L121.8 141.45C125.94 141.45 129.3 144.81 129.3 148.95C129.3 153.1 125.94 156.45 121.8 156.45L40.63 156.45L40.63 444.45C40.63 456.88 50.74 467 63.18 467L354.95 467C364.39 467 372.07 459.32 372.07 449.88L372.07 399.81C372.07 382.1 386.48 367.69 404.19 367.69L454.25 367.69C463.69 367.69 471.37 360.01 471.37 350.57L471.37 156.45L151.8 156.45C147.66 156.45 144.3 153.1 144.3 148.95C144.3 144.81 147.66 141.45 151.8 141.45L471.37 141.45L471.37 71.82ZM391.02 346.45C382.94 346.45 376.37 339.89 376.37 331.81L376.37 296.1C376.37 288.02 382.94 281.45 391.02 281.45L426.73 281.45C434.81 281.45 441.37 288.02 441.37 296.1L441.37 331.81C441.37 339.88 434.81 346.45 426.73 346.45L391.02 346.45ZM391.37 331.45L426.37 331.45L426.37 296.45L391.37 296.45L391.37 331.45ZM274.46 236.81L274.46 201.1C274.46 193.02 281.03 186.45 289.1 186.45L324.81 186.45C332.89 186.45 339.46 193.02 339.46 201.1L339.46 236.81C339.46 244.89 332.89 251.45 324.81 251.45L289.1 251.45C281.03 251.45 274.46 244.89 274.46 236.81ZM289.46 236.45L324.46 236.45L324.46 201.45L289.46 201.45L289.46 236.45ZM135.63 386.64L135.63 422.36C135.63 430.43 129.06 437 120.98 437L85.27 437C77.2 437 70.63 430.43 70.63 422.36L70.63 386.64C70.63 378.57 77.2 372 85.27 372L120.98 372C129.06 372 135.63 378.57 135.63 386.64ZM120.63 387L85.63 387L85.63 422L120.63 422L120.63 387ZM135.63 201.1L135.63 236.81C135.63 244.89 129.06 251.45 120.98 251.45L85.27 251.45C77.2 251.45 70.63 244.89 70.63 236.81L70.63 201.1C70.63 193.02 77.2 186.45 85.27 186.45L120.98 186.45C129.06 186.45 135.63 193.02 135.63 201.1ZM120.63 201.45L85.63 201.45L85.63 236.45L120.63 236.45L120.63 201.45ZM274.46 329.58L274.46 293.87C274.46 285.8 281.03 279.23 289.1 279.23L324.81 279.23C332.89 279.23 339.46 285.8 339.46 293.87L339.46 329.58C339.46 337.66 332.89 344.23 324.81 344.23L289.1 344.23C281.03 344.23 274.46 337.66 274.46 329.58ZM289.46 329.23L324.46 329.23L324.46 294.23L289.46 294.23L289.46 329.23ZM391.02 251.45C382.94 251.45 376.37 244.89 376.37 236.81L376.37 201.1C376.37 193.02 382.94 186.45 391.02 186.45L426.73 186.45C434.81 186.45 441.37 193.02 441.37 201.1L441.37 236.81C441.37 244.89 434.81 251.45 426.73 251.45L391.02 251.45ZM382.7 34.27L401.76 34.27L401.76 22.81C401.76 18.5 398.26 15 393.95 15L390.51 15C386.2 15 382.7 18.5 382.7 22.81L382.7 34.27ZM110.24 22.81L110.24 34.27L129.3 34.27L129.3 22.81C129.3 18.5 125.8 15 121.49 15L118.05 15C113.75 15 110.24 18.5 110.24 22.81L110.24 22.81ZM471.37 393.44L393.81 471C386.72 478.09 377.29 482 367.26 482L63.18 482C54.72 482 46.91 479.19 40.63 474.45L40.63 474.5C40.63 486.91 50.72 497 63.13 497L448.87 497C461.28 497 471.37 486.91 471.37 474.5L471.37 393.44ZM461.81 381.78C459.39 382.37 456.86 382.69 454.25 382.69L404.19 382.69C394.75 382.69 387.07 390.37 387.07 399.81L387.07 449.88C387.07 452.48 386.75 455.01 386.16 457.44L461.81 381.78ZM391.37 236.45L426.37 236.45L426.37 201.45L391.37 201.45L391.37 236.45ZM135.63 293.87L135.63 329.58C135.63 337.66 129.06 344.23 120.98 344.23L85.27 344.23C77.2 344.23 70.63 337.66 70.63 329.58L70.63 293.87C70.63 285.8 77.2 279.23 85.27 279.23L120.98 279.23C129.06 279.23 135.63 285.79 135.63 293.87ZM120.63 294.23L85.63 294.23L85.63 329.23L120.63 329.23L120.63 294.23ZM172.54 236.81L172.54 201.1C172.54 193.02 179.11 186.45 187.19 186.45L222.9 186.45C230.97 186.45 237.54 193.02 237.54 201.1L237.54 236.81C237.54 244.88 230.97 251.45 222.9 251.45L187.19 251.45C179.11 251.45 172.54 244.88 172.54 236.81ZM187.54 236.45L222.54 236.45L222.54 201.45L187.54 201.45L187.54 236.45ZM324.46 422L324.46 387L289.46 387L289.46 396.94C289.46 401.09 286.1 404.44 281.96 404.44C277.81 404.44 274.46 401.09 274.46 396.94L274.46 386.64C274.46 378.57 281.03 372 289.1 372L324.81 372C332.89 372 339.46 378.57 339.46 386.64L339.46 422.36C339.46 430.43 332.89 437 324.81 437L289.1 437C281.03 437 274.46 430.43 274.46 422.36C274.46 418.22 277.81 414.86 281.96 414.86C285.98 414.86 289.26 418.02 289.45 422L324.46 422ZM172.54 329.58L172.54 293.87C172.54 285.8 179.11 279.23 187.19 279.23L222.9 279.23C230.97 279.23 237.54 285.8 237.54 293.87L237.54 329.58C237.54 337.66 230.97 344.23 222.9 344.23L187.19 344.23C179.11 344.23 172.54 337.66 172.54 329.58ZM187.54 329.23L222.54 329.23L222.54 294.23L187.54 294.23L187.54 329.23ZM172.54 422.36L172.54 386.64C172.54 378.57 179.11 372 187.19 372L222.9 372C230.97 372 237.54 378.57 237.54 386.64L237.54 422.36C237.54 430.43 230.97 437 222.9 437L187.19 437C179.11 437 172.54 430.43 172.54 422.36ZM187.54 422L222.54 422L222.54 387L187.54 387L187.54 422Z" />
	</g>
</svg>